<svg width="24" height="24" viewBox="0 0 24 24" fill="none" xmlns="http://www.w3.org/2000/svg">
<path d="M8 11L13.5 15L19 11" stroke="#111327" stroke-width="1.5" stroke-linecap="round" stroke-linejoin="round"/>
<path d="M22 9L22 17C22 18.1046 21.1046 19 20 19L6 19C4.89543 19 4 18.1046 4 17L4 9C4 7.89543 4.89543 7 6 7L20 7C21.1046 7 22 7.89543 22 9Z" stroke="#111327" stroke-width="1.5"/>
<path d="M3.25 16L3 16C1.89543 16 0.999998 15.1046 0.999998 14L0.999999 6C0.999999 4.89543 1.89543 4 3 4L17 4C18.1046 4 19 4.89543 19 6L19 7.18182" stroke="#111327" stroke-width="1.5"/>
</svg>
