<?xml version="1.0" encoding="utf-8"?>
<!-- Generator: Adobe Illustrator 27.5.0, SVG Export Plug-In . SVG Version: 6.00 Build 0)  -->
<svg version="1.1" id="Layer_1" xmlns="http://www.w3.org/2000/svg" xmlns:xlink="http://www.w3.org/1999/xlink" x="0px" y="0px"
	 viewBox="0 0 1000 1000" style="enable-background:new 0 0 1000 1000;" xml:space="preserve">
<style type="text/css">
	
		.st0{clip-path:url(#SVGID_00000053507377163632173080000005840145312761242282_);fill:url(#SVGID_00000088131567884085973420000008605271882257180807_);}
	.st1{fill-rule:evenodd;clip-rule:evenodd;fill:#FBE571;}
	.st2{fill-rule:evenodd;clip-rule:evenodd;fill:#FFCB56;}
	.st3{fill-rule:evenodd;clip-rule:evenodd;fill:#F4884D;}
	.st4{fill-rule:evenodd;clip-rule:evenodd;fill:#ED5B3A;}
	.st5{fill-rule:evenodd;clip-rule:evenodd;fill:#D34360;}
	.st6{fill-rule:evenodd;clip-rule:evenodd;fill:#B0337D;}
	.st7{fill-rule:evenodd;clip-rule:evenodd;fill:#88278A;}
	.st8{fill-rule:evenodd;clip-rule:evenodd;fill:#5D1E86;}
	.st9{fill-rule:evenodd;clip-rule:evenodd;fill:#310F6A;}
	.st10{fill-rule:evenodd;clip-rule:evenodd;fill:#16043F;}
</style>
<g>
	<g>
		<defs>
			<path id="SVGID_1_" d="M750,67.3C989.1,205.3,1071,511,933,750c-138,239.1-443.7,321-682.7,183C11.2,795-70.7,489.3,67.3,250.2
				C205.3,11.2,511-70.7,750,67.3"/>
		</defs>
		<clipPath id="SVGID_00000085952912769985366610000003004044026667208381_">
			<use xlink:href="#SVGID_1_"  style="overflow:visible;"/>
		</clipPath>
		
			<linearGradient id="SVGID_00000165955802904027041660000017801544448499314599_" gradientUnits="userSpaceOnUse" x1="212.7873" y1="780.1454" x2="882.381" y2="127.6009">
			<stop  offset="0" style="stop-color:#032066"/>
			<stop  offset="1" style="stop-color:#F7B105"/>
		</linearGradient>
		
			<rect x="-70.7" y="-70.7" style="clip-path:url(#SVGID_00000085952912769985366610000003004044026667208381_);fill:url(#SVGID_00000165955802904027041660000017801544448499314599_);" width="1141.7" height="1141.7"/>
	</g>
	<path class="st1" d="M671.6,30.6c79.5,90.4,136.4,208.8,280.7,256.6C910.4,198,841.8,120.3,750,67.3
		C724.6,52.6,698.3,40.4,671.6,30.6"/>
	<path class="st2" d="M952.3,287.2C808.1,239.5,751.1,121,671.6,30.6C597.7,3.5,520-5.1,444.8,3.4C676,74.6,681.5,371.5,992.9,416.5
		C985.3,371.8,971.7,328.3,952.3,287.2"/>
	<path class="st3" d="M992.9,416.5C681.5,371.5,676,74.6,444.8,3.4C380.9,10.5,318.7,30,262,60.6
		c368.7,13.7,317.9,437.8,736.9,473.1C1001.5,494.4,999.4,455,992.9,416.5"/>
	<path class="st4" d="M998.9,533.7C579.9,498.4,630.7,74.4,262,60.6c-36.1,19.5-70,43.6-100.8,72c414,7.1,352,479.1,816.5,515.1
		C989.4,610.2,996.4,571.9,998.9,533.7"/>
	<path class="st5" d="M977.8,647.7c-464.6-36-402.5-508-816.5-515.1c-23.7,21.9-45.6,46.4-65.1,73.3
		c411.9,26.1,366.1,500.6,831.6,553c1.8-2.9,3.5-5.9,5.3-8.9C952.1,717,966.9,682.6,977.8,647.7"/>
	<path class="st6" d="M927.7,758.9c-465.5-52.4-419.7-527-831.6-553c-10.3,14.1-19.9,28.9-28.8,44.3c-6.2,10.7-11.9,21.5-17.2,32.4
		c380.5,55,368.8,496.7,793.3,580.9C875.4,833.3,903.9,798.4,927.7,758.9"/>
	<path class="st7" d="M843.4,863.6C418.9,779.4,430.6,337.6,50.1,282.6c-13.2,27.2-23.7,55.2-31.6,83.5
		c324.6,84.1,357.6,458.5,699.3,583.9C763.3,928.1,805.8,899.1,843.4,863.6"/>
	<path class="st8" d="M717.8,950.1C376.1,824.7,343.1,450.2,18.5,366.2c-8.8,31.5-14.3,63.4-16.8,95.4
		C248,564.8,321.8,842.3,554,997C610.8,990.8,666.3,974.9,717.8,950.1"/>
	<path class="st9" d="M554,997C321.8,842.3,248,564.8,1.7,461.6c-3.1,40.1-1.3,80.3,5.2,119.5c149.4,98.9,235.3,264,362.3,401.5
		C430.2,999.2,492.9,1003.7,554,997"/>
	<path class="st10" d="M369.2,982.6C242.3,845.1,156.4,680,6.9,581.1c23.5,142.6,108.4,274,243.3,351.9
		C288.5,955.1,328.5,971.5,369.2,982.6"/>
</g>
</svg>
