<?xml version="1.0" encoding="utf-8"?>
<!-- Generator: Adobe Illustrator 27.5.0, SVG Export Plug-In . SVG Version: 6.00 Build 0)  -->
<svg version="1.1" id="Layer_1" xmlns="http://www.w3.org/2000/svg" xmlns:xlink="http://www.w3.org/1999/xlink" x="0px" y="0px"
	 viewBox="0 0 119.8 119.8" style="enable-background:new 0 0 119.8 119.8;" xml:space="preserve">
<style type="text/css">
	
		.st0{clip-path:url(#SVGID_00000019654716039762944330000014619914049149513370_);fill:none;stroke:#000000;stroke-width:5;stroke-miterlimit:10;}
	.st1{fill-rule:evenodd;clip-rule:evenodd;fill:none;stroke:#000000;stroke-width:5;stroke-miterlimit:10;}
	.st2{fill-rule:evenodd;clip-rule:evenodd;stroke:#000000;stroke-width:5;stroke-miterlimit:10;}
</style>
<g>
	<defs>
		<path id="SVGID_1_" d="M88.6,10.2c27.5,15.9,36.9,51,21,78.4c-15.9,27.5-51,36.9-78.4,21c-27.5-15.9-36.9-51-21-78.4
			C26.1,3.8,61.2-5.7,88.6,10.2"/>
	</defs>
	<clipPath id="SVGID_00000054232738383638154800000011142834050553742496_">
		<use xlink:href="#SVGID_1_"  style="overflow:visible;"/>
	</clipPath>
	
		<rect x="-5.7" y="-5.7" style="clip-path:url(#SVGID_00000054232738383638154800000011142834050553742496_);fill:none;stroke:#000000;stroke-width:5;stroke-miterlimit:10;" width="131.1" height="131.1"/>
	
		<use xlink:href="#SVGID_1_"  style="overflow:visible;fill-rule:evenodd;clip-rule:evenodd;fill:none;stroke:#000000;stroke-width:5;stroke-miterlimit:10;"/>
</g>
<path class="st1" d="M116.5,50.3C80.8,45.1,80.1,11,53.6,2.9c-7.3,0.8-13.9,3.6-20.4,7.1c42.4,1.6,35.2,49.9,83.3,54
	C116.8,59.4,117.3,54.7,116.5,50.3"/>
<path class="st1" d="M114.8,76.9C61.4,72.7,68.5,18.5,21,17.7c-2.7,2.5-4.8,5.7-7,8.7c47.3,3,41.6,57.2,95.1,63.2
	c0.2-0.3,0.4-0.7,0.6-1C111.8,84.8,113.5,80.9,114.8,76.9"/>
<path class="st1" d="M99.4,101.7C50.6,92,51.9,41.3,8.2,34.9c-1.5,3.1-2.7,6.3-3.6,9.6c37.3,9.7,41.1,52.7,80.3,67.1
	C90.2,109.1,95,105.8,99.4,101.7"/>
<path class="st2" d="M66.1,117C39.4,99.2,31.8,67.8,3.5,55.9c-0.4,4.6-1,8.8-0.3,13.3c17.2,11.4,27,30.3,41.6,46.1
	C51.9,117.2,59.1,117.8,66.1,117"/>
<path class="st2" d="M44.9,115.3C30.3,99.5,21,81,3.9,69.6c2.7,16.4,11.8,31.1,27.3,40C35.6,112.2,40.2,114.1,44.9,115.3"/>
</svg>
