<svg width="24" height="24" viewBox="0 0 24 24" fill="none" xmlns="http://www.w3.org/2000/svg">
<path fill-rule="evenodd" clip-rule="evenodd" d="M7 3H17C19.2091 3 21 4.79086 21 7V17C21 19.2091 19.2091 21 17 21H7C4.79086 21 3 19.2091 3 17V7C3 4.79086 4.79086 3 7 3ZM18.747 7.665C19.114 7.252 19.077 6.62 18.664 6.253C18.251 5.886 17.619 5.922 17.253 6.336L9.957 14.543L6.707 11.293C6.316 10.903 5.684 10.903 5.293 11.293C4.902 11.684 4.902 12.317 5.293 12.707L9.293 16.707C9.48 16.895 9.735 17 10 17H10.029C10.305 16.992 10.564 16.871 10.747 16.665L18.747 7.665Z" fill="#04E4F4"/>
</svg>
