<svg xmlns="http://www.w3.org/2000/svg" width="24" height="24" viewBox="0 0 24 24">
  <path fill="#007fff" fill-rule="evenodd" d="M7,3 L17,3 C19.209139,3 21,4.790861 21,7 L21,17 C21,19.209139 19.209139,21 17,21 L7,21 C4.790861,21 3,19.209139 3,17 L3,7 C3,4.790861 4.790861,3 7,3 Z M18.747,7.665 C19.114,7.252 19.077,6.62 18.664,6.253 C18.251,5.886 17.619,5.922 17.253,6.336 L9.957,14.543 L6.707,11.293 C6.316,10.903 5.684,10.903 5.293,11.293 C4.902,11.684 4.902,12.317 5.293,12.707 L9.293,16.707 C9.48,16.895 9.735,17 10,17 L10.029,17 C10.305,16.992 10.564,16.871 10.747,16.665 L18.747,7.665 Z"/>
</svg>
