<?xml version="1.0" encoding="UTF-8"?>
<svg viewBox="0 0 24 24" version="1.1" xmlns="http://www.w3.org/2000/svg" xmlns:xlink="http://www.w3.org/1999/xlink">
    <title>Email</title>
    <g id="Email" stroke="none" stroke-width="1" fill="none" fill-rule="evenodd">
        <g id="Group">
            <g id="email-a-link" fill="#FF495C" fill-rule="nonzero">
                <circle id="email-a" cx="12" cy="12" r="12"></circle>
            </g>
            <g id="email-a-link" fill="#101E1E" fill-opacity="0.4" fill-rule="nonzero">
                <circle id="email-a" cx="12" cy="12" r="12"></circle>
            </g>
            <g id="email" transform="translate(5.000000, 6.000000)" fill="#FFFFFF">
                <path d="M11.2,0 C12.7463973,0 14,1.2536027 14,2.8 L14,8.4 C14,9.9463973 12.7463973,11.2 11.2,11.2 L2.8,11.2 C1.2536027,11.2 0,9.9463973 0,8.4 L0,2.8 C0,1.2536027 1.2536027,0 2.8,0 L11.2,0 Z M12.6001749,3.18820032 C10.7848894,5.24421786 8.92010854,6.3 7,6.3 C5.08010586,6.3 3.2155271,5.24445362 1.40043318,3.18888906 L1.4,8.4 C1.4,9.17319865 2.02680135,9.8 2.8,9.8 L11.2,9.8 C11.9731987,9.8 12.6,9.17319865 12.6,8.4 L12.6001749,3.18820032 Z M11.2,1.4 L2.8,1.4 C2.48492463,1.4 2.19415897,1.50408224 1.96021002,1.67973975 C3.70173016,3.85109607 5.38420076,4.9 7,4.9 C8.62003464,4.9 10.3070906,3.84559002 12.0533918,1.66271346 L12.03979,1.67973975 C11.805841,1.50408224 11.5150754,1.4 11.2,1.4 Z" id="Shape"></path>
            </g>
        </g>
    </g>
</svg>