<?xml version="1.0" encoding="UTF-8"?>
<svg viewBox="0 0 24 24" version="1.1" xmlns="http://www.w3.org/2000/svg" xmlns:xlink="http://www.w3.org/1999/xlink">
    <title>Email Simple 2 Copy 2</title>
    <g id="Email-Simple-2-Copy-2" stroke="none" stroke-width="1" fill="none" fill-rule="evenodd">
        <g id="email-copy" transform="translate(2.000000, 4.000000)" fill="#FFFFFF">
            <path d="M16,0 C18.209139,0 20,1.790861 20,4 L20,12 C20,14.209139 18.209139,16 16,16 L4,16 C1.790861,16 0,14.209139 0,12 L0,4 C0,1.790861 1.790861,0 4,0 L16,0 Z M18.0002499,4.55457188 C15.4069848,7.4917398 12.7430122,9 10,9 C7.25729409,9 4.59361014,7.4920766 2.00061883,4.5555558 L2,12 C2,13.1045695 2.8954305,14 4,14 L16,14 C17.1045695,14 18,13.1045695 18,12 L18.0002499,4.55457188 Z M16,2 L4,2 C3.54989233,2 3.13451282,2.14868892 2.80030003,2.39962821 C5.28818594,5.50156582 7.69171537,7 10,7 C12.3143352,7 14.7244151,5.49370003 17.2191312,2.37530495 L17.1997,2.39962821 C16.8654872,2.14868892 16.4501077,2 16,2 Z" id="Shape"></path>
        </g>
    </g>
</svg>